<svg xmlns="http://www.w3.org/2000/svg" viewBox="0 0 47.8 46.9"><defs><style>.cls-1{fill:none;stroke:#222;stroke-linecap:round;stroke-linejoin:round;stroke-width:3px;}</style></defs><title>9</title><g id="Layer_2" data-name="Layer 2"><g id="Icons"><g id="Line"><g id="_9" data-name="9"><line class="cls-1" x1="46.3" y1="19.01" x2="39.13" y2="14.2"/><line class="cls-1" x1="8.66" y1="14.2" x2="1.5" y2="19.01"/><polyline class="cls-1" points="39.13 24.13 39.13 14.2 39.13 1.5 8.66 1.5 8.66 14.2 8.66 24.13"/><path class="cls-1" d="M46.3,19,25.89,33.59a3.44,3.44,0,0,1-4,0L1.5,19V42.15A3.26,3.26,0,0,0,4.75,45.4H43a3.26,3.26,0,0,0,3.26-3.25Z"/><line class="cls-1" x1="19.37" y1="7.93" x2="28.43" y2="7.93"/><line class="cls-1" x1="14.77" y1="12.3" x2="33.03" y2="12.3"/><line class="cls-1" x1="14.77" y1="16.67" x2="33.03" y2="16.67"/><line class="cls-1" x1="14.77" y1="21.04" x2="27.13" y2="21.04"/></g></g></g></g></svg>