<svg xmlns="http://www.w3.org/2000/svg" viewBox="0 0 39.01 59.1"><defs><style>.cls-1{fill:none;stroke:#222;stroke-linecap:round;stroke-linejoin:round;stroke-width:3px;}</style></defs><title>1</title><g id="Layer_2" data-name="Layer 2"><g id="Icons"><g id="Line"><g id="_1" data-name="1"><path class="cls-1" d="M20.77,9.43l2.06,4.88,3.09,7.33L29,29l3.09,7.33,3.09,7.32,2,4.79a3.55,3.55,0,0,1-.12,3.07c-1.26,2.39-5.21,6.13-17.59,6.13-6.47,0-10.64-1-13.33-2.34a9.1,9.1,0,0,1-4.27-3.79,3.54,3.54,0,0,1-.15-3l0-.07L6.12,38.16l4.35-10.32,4.36-10.31,3.42-8.1"/><circle class="cls-1" cx="19.51" cy="5.56" r="4.06"/><path class="cls-1" d="M13.89,19.74h0a68.31,68.31,0,0,0,9.72-3.59"/><path class="cls-1" d="M9.76,29.52h0a69.28,69.28,0,0,0,16.9-6.13"/><path class="cls-1" d="M5.75,39h0a69.79,69.79,0,0,0,23.9-8.54"/><path class="cls-1" d="M1.84,48.28A70,70,0,0,0,32.58,37.4"/><path class="cls-1" d="M7.26,55.74c15.07-3.19,23.47-6.22,28.17-11.58"/></g></g></g></g></svg>