<svg xmlns="http://www.w3.org/2000/svg" viewBox="0 0 44.11 66.08"><defs><style>.cls-1{fill:none;stroke:#222;stroke-linecap:round;stroke-linejoin:round;stroke-width:3px;}</style></defs><title>7</title><g id="Layer_2" data-name="Layer 2"><g id="Icons"><g id="Line"><g id="_7" data-name="7"><path class="cls-1" d="M15.28,20.46a7.72,7.72,0,0,0-5.53-1.58C4.23,19.58.62,27,1.69,35.39s6.42,14.67,11.94,14c3.9-.49,6.84-4.31,7.86-9.46"/><path class="cls-1" d="M5.28,31.2c.15-3.32,1.42-6.13,3.35-7.48"/><path class="cls-1" d="M13.63,49.36a8.65,8.65,0,0,0-.2,7.63c1.93,3.91,3.54,3.52,4,7.59"/><ellipse class="cls-1" cx="28.92" cy="22.36" rx="13.7" ry="20.86"/><path class="cls-1" d="M20.15,17.26c.78-4.45,3-8,5.8-9.51"/><path class="cls-1" d="M28.92,43.23S25.06,48.2,27,53.8,26,60,25.07,64.38"/></g></g></g></g></svg>