<svg xmlns="http://www.w3.org/2000/svg" viewBox="0 0 43.8 72.91"><defs><style>.cls-1{fill:none;stroke:#222;stroke-linecap:round;stroke-linejoin:round;stroke-width:3px;}</style></defs><title>6</title><g id="Layer_2" data-name="Layer 2"><g id="Icons"><g id="Line"><g id="_6" data-name="6"><line class="cls-1" x1="33.97" y1="1.5" x2="31.13" y2="1.5"/><path class="cls-1" d="M35.64,13.08v1.78a7.85,7.85,0,0,0,2.12,5.44A15.33,15.33,0,0,1,42.3,31.5V66.32a4.84,4.84,0,0,1-4.54,5.09H27.34a4.84,4.84,0,0,1-4.54-5.09V31.5a15.29,15.29,0,0,1,4.54-11.2,7.84,7.84,0,0,0,2.11-5.44V13.08"/><path class="cls-1" d="M30.87,1.5h3.35A1.67,1.67,0,0,1,35.9,3.17v9.91a0,0,0,0,1,0,0H29.2a0,0,0,0,1,0,0V3.17A1.67,1.67,0,0,1,30.87,1.5Z"/><rect class="cls-1" x="27.4" y="41.63" width="10.3" height="5.91"/><line class="cls-1" x1="27.4" y1="52.65" x2="27.4" y2="63.85"/><path class="cls-1" d="M27.4,36.66V30.52s0-4.25,2.23-6"/><path class="cls-1" d="M8.91,58.29H7.6a6.1,6.1,0,0,1-6.09-6.44l.77-13.8h12L15,51.85A6.1,6.1,0,0,1,8.91,58.29Z"/><line class="cls-1" x1="4.78" y1="50.41" x2="5.23" y2="42.22"/><line class="cls-1" x1="8.26" y1="58.74" x2="8.26" y2="71.28"/><line class="cls-1" x1="3.98" y1="71.28" x2="12.54" y2="71.28"/></g></g></g></g></svg>